<svg data-v-0dd9719b="" version="1.0" xmlns="http://www.w3.org/2000/svg" xmlns:xlink="http://www.w3.org/1999/xlink" width="100%" height="100%" viewBox="0 0 340.000000 250.000000" preserveAspectRatio="xMidYMid meet" color-interpolation-filters="sRGB" style="margin: auto;"> <rect data-v-0dd9719b="" x="0" y="0" width="100%" height="100%" fill="#fff" fill-opacity="1" class="background"></rect> <rect data-v-0dd9719b="" x="0" y="0" width="100%" height="100%" fill="url(#watermark)" fill-opacity="1" class="watermarklayer"></rect> <g data-v-0dd9719b="" fill="#333" class="icon-text-wrapper icon-svg-group iconsvg" transform="translate(47.845001220703125,90.55643463134766)"><g class="iconsvg-imagesvg" transform="translate(0,0)"><g><rect fill="#333" fill-opacity="0" stroke-width="2" x="0" y="0" width="60" height="68.88712844005097" class="image-rect"></rect> <svg x="0" y="0" width="60" height="68.88712844005097" filtersec="colorsb205797808" class="image-svg-svg primary" style="overflow: visible;"><svg xmlns="http://www.w3.org/2000/svg" viewBox="0.02433544024825096 0 104.75301361083984 120.26822662353516"><path d="M91.56 104.16c.65.37.33.66 0 1a52 52 0 0 1-40 15c-.37 0-.83.09-1-.53-.88-4.47-3.29-8.36-4.82-12.59a120.62 120.62 0 0 1-5-18.93 148.27 148.27 0 0 1-2.5-29 130.33 130.33 0 0 1 9.89-49.38 1.32 1.32 0 0 1 .41-.61c-.15 1.45-.27 2.89-.43 4.34a117 117 0 0 0-.43 22.3 128.35 128.35 0 0 0 4.25 25.42c3 10.43 7.51 20.15 15.35 28a36 36 0 0 0 5.26 4.18 51.58 51.58 0 0 0 4.39 3.08 4.12 4.12 0 0 0 .43.41 61.71 61.71 0 0 0 10.1 5.72 17.66 17.66 0 0 0 4.1 1.59z" fill="#1da987"></path><path d="M30.55 19.63c-.83 2.92-1.61 5.63-2.36 8.34-.14.51-.55.68-.91.92A46 46 0 0 0 6.61 69.37 46.52 46.52 0 0 0 13.08 91a42.63 42.63 0 0 0 10.56 12.07c.13.1.24.25.39.21-3.56-20.85-1.3-41.28 4.73-61.43A127.23 127.23 0 0 1 50.06 0c.18 0 .14.14.11.21-3.33 8-5.38 16.34-8 24.53-1.3 4-2.89 8-4 12.05a151.57 151.57 0 0 0-4.48 22 145.49 145.49 0 0 0-1.14 17.94 115.88 115.88 0 0 0 4.65 34.31 39 39 0 0 1 1.13 8.06A52.27 52.27 0 0 1 1.36 79.25a52.73 52.73 0 0 1 29.19-59.62zM91.56 104.16a17.66 17.66 0 0 1-4.1-1.61 61.71 61.71 0 0 1-10.1-5.72 4.12 4.12 0 0 1-.43-.41 25.94 25.94 0 0 0 18.83-13.78 23.8 23.8 0 0 0 2.15-7.84 46 46 0 0 0-.5-17.8 45.5 45.5 0 0 0-13.57-23.41A45 45 0 0 0 58.3 21.75a42.65 42.65 0 0 0-6.49-.34c-.64 0-.84-.16-.82-.8v-4.76c0-.77.21-1 1-1a51.87 51.87 0 0 1 32.59 10.9A51.12 51.12 0 0 1 104 57.19a50.58 50.58 0 0 1 .37 15.24 65.38 65.38 0 0 1-4.75 19.26c-1.93 4.62-4.32 8.98-8.06 12.47z" fill="#0a507b"></path></svg></svg> <!----></g></g> <g transform="translate(67,5.652313232421875)"><g data-gra="path-name" fill-rule="" class="tp-name iconsvg-namesvg" transform="translate(0,0)"><g transform="scale(1)"><g><path d="M11.7-16.16L11.7-11.43 20.11-11.43 20.11-16.16 11.7-16.16ZM20.11-17.46L20.11-22.05 11.7-22.05 11.7-17.46 20.11-17.46ZM33.07-17.46L33.07-22.05 24.48-22.05 24.48-17.46 33.07-17.46ZM24.48-16.16L24.48-11.43 33.07-11.43 33.07-16.16 24.48-16.16ZM24.48 0.94L35.55 0.94Q35.68-2.56 39.6-2.56L39.6-2.56Q43.56-1.98 43.42 1.53L43.42 1.53Q43.24 2.25 42.16 2.25L42.16 2.25 1.98 2.25 1.57 0.94 20.11 0.94 20.11-4.18 5.49-4.18 5.08-5.49 20.11-5.49 20.11-10.13 11.7-10.13 11.7-9.22Q11.7-8.87 10.48-8.32L10.48-8.32Q9.27-7.83 8.05-7.83L8.05-7.83 7.42-7.83 7.42-23.31 20.11-23.31 20.11-27.49 2.75-27.49 2.38-28.8 20.11-28.8 20.11-32.67Q12.73-32.13 5.26-32.13L5.26-32.13 5.17-32.94Q12.64-33.62 20.97-35.05L20.97-35.05Q29.34-36.54 34.29-38.07L34.29-38.07 38.16-34.11Q37.39-33.44 35.5-34.29L35.5-34.29Q30.64-33.52 24.48-32.98L24.48-32.98 24.48-28.8 35.32-28.8Q35.5-31.95 39.2-31.95L39.2-31.95Q42.88-31.36 42.7-28.21L42.7-28.21Q42.52-27.49 41.49-27.49L41.49-27.49 24.48-27.49 24.48-23.31 32.63-23.31Q32.85-25.65 36.18-25.65L36.18-25.65Q39.51-24.57 39.28-22.23L39.28-22.23Q38.7-21.6 37.39-21.33L37.39-21.33 37.39-9.67Q37.35-9.45 36.05-8.96L36.05-8.96Q38.74-6.43 40.5-4.91L40.5-4.91Q40.32-4.18 39.28-4.18L39.28-4.18 24.48-4.18 24.48 0.94ZM33.44-5.49L35.87-8.5Q34.78-8.5 33.8-8.5L33.8-8.5 33.07-8.5 33.07-10.13 24.48-10.13 24.48-5.49 33.44-5.49ZM64.94-37.93L64.94-37.93 65.25-38.25Q71.14-37.66 72.67-34.78L72.67-34.78Q73.58-33.07 72.45-31.81L72.45-31.81Q71.28-30.51 69.44-31.45L69.44-31.45Q69.3-31.54 69.21-31.59L69.21-31.59Q68.27-34.7 64.94-37.93ZM87.53-29.74L55.35-29.74 55.35-19.26Q55.35-16.56 55.22-14.54L55.22-14.54Q55.13-12.51 54.63-9.67L54.63-9.67Q54.18-6.88 53.28-4.68L53.28-4.68Q52.42-2.52 50.8-0.18 49.19 2.16 46.89 3.96L46.89 3.96 46.3 3.55Q49.32-0.9 50.27-6.39L50.27-6.39Q51.21-11.92 51.21-19.21L51.21-19.21 51.21-31.05 81.72-31.05Q81.77-34.29 85.28-34.29L85.28-34.29Q88.78-33.7 88.74-30.46L88.74-30.46Q88.56-29.74 87.53-29.74L87.53-29.74ZM85.81-17.73L85.81-17.73 72.18-17.73Q74.03-11.29 78.39-7.15L78.39-7.15Q82.75-3.06 88.74-1.13L88.74-1.13 88.65-0.58Q85.32 0.81 84.87 3.6L84.87 3.6Q75.02-1.98 71.59-15.84L71.59-15.84Q69.88-8.82 65.43-3.92L65.43-3.92Q60.98 0.94 52.52 3.73L52.52 3.73 52.11 3.24Q59.17-0.27 62.77-5.49L62.77-5.49Q66.38-10.75 67.59-17.73L67.59-17.73 57.11-17.73 56.74-19.04 67.77-19.04Q68.36-22.99 68.27-28.66L68.27-28.66 73.03-28.04Q72.81-22.27 72.27-19.04L72.27-19.04 79.25-19.04Q79.42-22.41 83.34-22.41L83.34-22.41Q87.25-21.82 87.07-18.45L87.07-18.45Q86.89-17.73 85.81-17.73ZM101.34-16.11L100.62-16.11 100.62-24.57Q97.29-19.89 91.98-16.65L91.98-16.65 91.48-17.28Q96.48-22 98.95-29.83L98.95-29.83 92.75-29.83 92.39-31.14 100.62-31.14 100.62-38.16 104.53-37.62 104.53-31.14 105.89-31.14Q105.93-34.02 108.99-34.02L108.99-34.02Q112.05-33.44 112-30.55L112-30.55Q111.87-29.83 110.84-29.83L110.84-29.83 104.53-29.83 104.53-27.9Q109.75-27.22 111.02-24.61L111.02-24.61Q111.78-22.99 110.75-21.96L110.75-21.96Q109.62-20.93 108.05-21.91L108.05-21.91Q107.33-24.25 104.53-26.91L104.53-26.91 104.53-17.28Q104.53-16.96 103.45-16.52L103.45-16.52Q102.38-16.11 101.34-16.11L101.34-16.11ZM109.26-14.13L121.36-14.13Q121.81-16.38 125.19-16.38L125.19-16.38Q128.47-14.94 128.03-12.69L128.03-12.69Q127.57-12.15 125.87-12.06L125.87-12.06Q120.78-5.31 112.91-1.53 105.03 2.25 92.92 3.73L92.92 3.73 92.61 3.01Q102.91 0.58 109.75-3.1L109.75-3.1Q116.64-6.84 120.91-12.82L120.91-12.82 107.95-12.82Q107.28-12.2 105.75-10.93L105.75-10.93Q109.98-9.86 110.75-7.42L110.75-7.42Q111.24-5.85 110.11-5.08L110.11-5.08Q109.13-4.37 107.78-5.17L107.78-5.17Q107.01-7.65 104.4-9.95L104.4-9.95Q99-6.03 93.02-4.09L93.02-4.09 92.61-4.63Q97.06-7.11 101.03-10.98L101.03-10.98Q104.98-14.89 106.88-18.31L106.88-18.31 110.38-16.11Q110.03-14.89 109.26-14.13L109.26-14.13ZM131.67-29.92L131.67-29.92 123.93-29.92Q125.55-27.04 128.16-24.75L128.16-24.75Q130.81-22.45 133.69-21.38L133.69-21.38 133.65-20.88Q131.22-20.29 130.5-17.23L130.5-17.23Q125.23-21.38 122.94-29.7L122.94-29.7 122.94-17.32Q122.94-17.01 121.81-16.56L121.81-16.56Q120.73-16.16 119.66-16.16L119.66-16.16 118.89-16.16 118.89-24.88Q115.33-20.65 109.53-17.73L109.53-17.73 109.08-18.4Q114.7-22.72 117.31-29.92L117.31-29.92 112.41-29.92 112.05-31.23 118.89-31.23 118.89-38.02 122.94-37.48 122.94-31.23 126.41-31.23Q126.5-34.2 129.69-34.2L129.69-34.2Q132.88-33.62 132.8-30.64L132.8-30.64Q132.66-29.92 131.67-29.92ZM146.34-38.02L146.34-38.02 150.97-36Q148.81-29.65 146.79-25.56L146.79-25.56 146.79 2.43Q146.75 2.75 145.57 3.24L145.57 3.24Q144.41 3.78 143.28 3.78L143.28 3.78 142.47 3.78 142.47-20.02Q139.72-16.61 136.94-14.35L136.94-14.35 136.35-14.76Q139.37-19.08 142.11-25.33L142.11-25.33Q144.85-31.63 146.34-38.02ZM176.35-10.26L176.89-10.21 176.72-2.65Q178.06-2.21 178.47-1.84L178.47-1.84Q178.88-1.53 178.88-0.85L178.88-0.85Q178.88 0.72 176.4 1.44L176.4 1.44Q173.97 2.16 168.57 2.16L168.57 2.16 161.95 2.16Q156.47 2.16 153.9 0.81L153.9 0.81Q151.38-0.54 151.11-3.65L151.11-3.65Q150.75-6.79 153.85-11.61L153.85-11.61Q157-16.43 166.41-28.57L166.41-28.57Q167.72-30.24 168.39-31.14L168.39-31.14 152.06-31.14 151.65-32.45 168.88-32.45Q169.16-34.74 172.49-34.74L172.49-34.74Q175.68-33.03 175.41-30.73L175.41-30.73Q174.69-30.2 172.98-30.02L172.98-30.02Q163.53-18.63 159.44-12.51 155.34-6.39 155.66-4.23L155.66-4.23Q155.84-2.92 157.28-2.38L157.28-2.38Q158.72-1.89 161.87-1.89L161.87-1.89 168.84-1.89Q171.63-1.89 172.57-2.07 173.52-2.25 173.84-2.75L173.84-2.75Q175.05-4.59 176.35-10.26L176.35-10.26Z" transform="translate(-1.5699999332427979, 38.25)"></path></g> <!----> <!----> <!----> <!----> <!----> <!----> <!----></g></g> <g data-gra="path-slogan" fill-rule="" class="tp-slogan iconsvg-slogansvg" fill="#333" transform="translate(5,48.209999084472656)"><rect x="0" height="1" y="4.185000419616699" width="18.639995574951172"></rect> <rect height="1" y="4.185000419616699" width="18.639995574951172" x="148.67000198364258"></rect> <g transform="translate(21.639995574951172,0)"><g transform="scale(1)"><path d="M8.06-6.05L8.06-6.05L6.94-6.05Q6.52-7.78 4.55-7.83L4.55-7.83Q1.83-7.69 1.73-4.36L1.73-4.36Q1.73-0.80 4.59-0.80L4.59-0.80Q6.56-0.84 7.03-3.19L7.03-3.19L8.16-3.19Q7.64 0.05 4.36 0.14L4.36 0.14Q0.61 0 0.52-4.31L0.52-4.31Q0.70-8.63 4.55-8.81L4.55-8.81Q7.59-8.72 8.06-6.05ZM10.69-5.06L15.19-5.06L15.19-8.58L16.36-8.58L16.36 0L15.19 0L15.19-3.98L10.69-3.98L10.69 0L9.52 0L9.52-8.58L10.69-8.58L10.69-5.06ZM24.94-4.27L24.94-4.27Q24.75-7.64 21.94-7.83L21.94-7.83Q19.08-7.69 18.94-4.27L18.94-4.27Q19.08-0.94 21.94-0.80L21.94-0.80Q24.75-0.98 24.94-4.27ZM26.11-4.27L26.11-4.27Q25.83 0 21.94 0.14L21.94 0.14Q18 0 17.72-4.27L17.72-4.27Q17.95-8.72 21.94-8.81L21.94-8.81Q25.83-8.67 26.11-4.27ZM28.88-8.58L33.19-1.64L33.19-8.58L34.31-8.58L34.31 0L33 0L28.64-6.94L28.59-6.94L28.59 0L27.47 0L27.47-8.58L28.88-8.58ZM42.52-3.61L39.89-3.61L39.89-4.59L43.64-4.59L43.64 0L42.89 0L42.61-1.08Q41.63 0.09 39.80 0.14L39.80 0.14Q38.06 0.14 37.13-0.75L37.13-0.75Q35.72-2.06 35.77-4.36L35.77-4.36Q36.09-8.63 39.84-8.81L39.84-8.81Q43.03-8.63 43.50-6L43.50-6L42.38-6Q41.91-7.78 39.80-7.83L39.80-7.83Q37.13-7.64 36.98-4.31L36.98-4.31Q36.98-0.75 39.84-0.75L39.84-0.75Q40.88-0.75 41.63-1.31L41.63-1.31Q42.56-2.06 42.52-3.61L42.52-3.61ZM50.44-1.08L49.55-1.78L50.16-2.48L51.23-1.64Q52.22-2.63 52.22-4.27L52.22-4.27Q52.03-7.64 49.22-7.83L49.22-7.83Q46.36-7.69 46.22-4.27L46.22-4.27Q46.36-0.94 49.22-0.80L49.22-0.80Q49.92-0.80 50.44-1.08L50.44-1.08ZM52.17-0.94L53.30-0.05L52.73 0.56L51.42-0.33Q50.58 0.14 49.22 0.14L49.22 0.14Q45.28 0 45-4.27L45-4.27Q45.23-8.72 49.22-8.81L49.22-8.81Q53.11-8.67 53.39-4.27L53.39-4.27Q53.34-2.20 52.17-0.94L52.17-0.94ZM54.94-8.58L56.11-8.58L56.11 0L54.94 0L54.94-8.58ZM59.48-8.58L63.80-1.64L63.80-8.58L64.92-8.58L64.92 0L63.61 0L59.25-6.94L59.20-6.94L59.20 0L58.08 0L58.08-8.58L59.48-8.58ZM73.13-3.61L70.50-3.61L70.50-4.59L74.25-4.59L74.25 0L73.50 0L73.22-1.08Q72.23 0.09 70.41 0.14L70.41 0.14Q68.67 0.14 67.73-0.75L67.73-0.75Q66.33-2.06 66.38-4.36L66.38-4.36Q66.70-8.63 70.45-8.81L70.45-8.81Q73.64-8.63 74.11-6L74.11-6L72.98-6Q72.52-7.78 70.41-7.83L70.41-7.83Q67.73-7.64 67.59-4.31L67.59-4.31Q67.59-0.75 70.45-0.75L70.45-0.75Q71.48-0.75 72.23-1.31L72.23-1.31Q73.17-2.06 73.13-3.61L73.13-3.61ZM87.61-8.58L87.61 0L86.48 0L86.48-5.06Q86.48-5.77 86.48-7.22L86.48-7.22L84.05 0L82.88 0L80.48-7.22L80.44-7.22Q80.44-6.70 80.48-5.67L80.48-5.67Q80.48-5.16 80.48-5.06L80.48-5.06L80.48 0L79.31 0L79.31-8.58L81-8.58L83.48-1.31L85.92-8.58L87.61-8.58ZM90.61-1.03L95.77-1.03L95.77 0L89.44 0L89.44-8.58L95.67-8.58L95.67-7.59L90.61-7.59L90.61-4.92L95.30-4.92L95.30-3.89L90.61-3.89L90.61-1.03ZM98.67-8.58L102.98-1.64L102.98-8.58L104.11-8.58L104.11 0L102.80 0L98.44-6.94L98.39-6.94L98.39 0L97.27 0L97.27-8.58L98.67-8.58ZM112.31-3.61L109.69-3.61L109.69-4.59L113.44-4.59L113.44 0L112.69 0L112.41-1.08Q111.42 0.09 109.59 0.14L109.59 0.14Q107.86 0.14 106.92-0.75L106.92-0.75Q105.52-2.06 105.56-4.36L105.56-4.36Q105.89-8.63 109.64-8.81L109.64-8.81Q112.83-8.63 113.30-6L113.30-6L112.17-6Q111.70-7.78 109.59-7.83L109.59-7.83Q106.92-7.64 106.78-4.31L106.78-4.31Q106.78-0.75 109.64-0.75L109.64-0.75Q110.67-0.75 111.42-1.31L111.42-1.31Q112.36-2.06 112.31-3.61L112.31-3.61ZM122.16-8.58L118.92-3.47L118.92 0L117.75 0L117.75-3.47L114.52-8.58L115.88-8.58L118.31-4.45L120.80-8.58L122.16-8.58ZM123.38-8.58L124.55-8.58L124.55 0L123.38 0L123.38-8.58Z" transform="translate(-0.515625, 8.8125)"></path></g></g></g></g></g><defs v-gra="od"></defs></svg>